<svg width="54" height="54" viewBox="0 0 54 54" fill="none" xmlns="http://www.w3.org/2000/svg">
<g id="money 1" clip-path="url(#clip0_2_38)">
<g id="Group">
<path id="Vector" d="M8.77262 8.80311C8.77345 8.80238 8.77408 8.80186 8.77491 8.80113L16.5835 6.11418L30.2148 8.80124V14.7474L7.88498 18.4313L3.903 14.7474C5.19752 12.5105 6.84698 10.5028 8.77262 8.80311Z" fill="#E7A52E"/>
<g id="Group_2">
<path id="Vector_2" d="M8.7747 44.4778L18.9667 42.5387L30.2148 44.4778V50.424H24.5046C18.5329 50.424 13.0756 48.2229 8.89905 44.588" fill="#E7A52E"/>
<path id="Vector_3" d="M30.2148 38.5318L14.1336 40.8596L3.90289 38.5317C2.83825 36.6913 2.01252 34.6952 1.46954 32.5856L13.433 29.1366L30.2148 32.5856V38.5318Z" fill="#E7A52E"/>
</g>
<path id="Vector_4" d="M1.46954 20.6934L8.7747 16.3302L30.2148 20.6934V26.6395L6.80504 30.8665L0.720196 26.6395C0.720196 24.586 0.980139 22.5941 1.46954 20.6934Z" fill="#E7A52E"/>
<path id="Vector_5" d="M4.03661 26.6395C4.03661 13.5037 14.6852 2.8551 27.821 2.8551C28.6291 2.8551 29.4275 2.89579 30.2148 2.97456V50.424H27.821C14.6853 50.4239 4.03661 39.7753 4.03661 26.6395Z" fill="#E28424"/>
<g id="Group_3">
<path id="Vector_6" d="M8.7747 8.80123C12.9673 5.10125 18.4733 2.8551 24.5046 2.8551H30.2148V8.80123H8.7747Z" fill="#C85929"/>
<path id="Vector_7" d="M30.2148 20.6934H1.46954C2.01252 18.5838 2.83825 16.5878 3.90289 14.7473H30.2148V20.6934Z" fill="#C85929"/>
<path id="Vector_8" d="M30.2148 32.5857H1.46954C0.980347 30.6851 0.720196 28.6927 0.720196 26.6395H30.2148V32.5857Z" fill="#C85929"/>
<path id="Vector_9" d="M30.2148 44.4778H8.7747C6.8477 42.7772 5.19782 40.7702 3.90289 38.5317H30.2148V44.4778Z" fill="#C85929"/>
</g>
<path id="Vector_10" d="M7.2193 38.5318H30.2148V44.4779H12.0911C10.1641 42.7774 8.51423 40.7702 7.2193 38.5318Z" fill="#B94029"/>
<path id="Vector_11" d="M4.03661 26.6395H30.2148V32.5857H4.78595C4.29687 30.6851 4.03661 28.6927 4.03661 26.6395Z" fill="#B94029"/>
<path id="Vector_12" d="M7.21931 14.7473H30.2148V20.6934H4.78585C5.32884 18.5838 6.15456 16.5878 7.21931 14.7473Z" fill="#B94029"/>
<path id="Vector_13" d="M27.821 2.8551C28.6291 2.8551 29.4275 2.89579 30.2148 2.97456V8.80123H12.0911C16.2837 5.10125 21.7897 2.8551 27.821 2.8551Z" fill="#B94029"/>
<path id="Vector_14" d="M30.2156 50.4239C17.0798 50.4239 6.43116 39.7753 6.43116 26.6395C6.43116 13.5038 17.0798 2.8551 30.2156 2.8551C43.3514 2.8551 54 13.5038 54 26.6395C54 39.7753 43.3514 50.4239 30.2156 50.4239Z" fill="#F6E266"/>
<path id="Vector_15" d="M46.0039 44.4276C44.8015 45.4954 43.491 46.4442 42.0895 47.2531L35.5652 3.45897C37.1545 3.82412 38.6824 4.34942 40.1324 5.0154L46.0039 44.4276Z" fill="#FBF4AF"/>
<path id="Vector_16" d="M30.2156 2.8551C30.6479 2.8551 31.0773 2.86738 31.5039 2.89017C18.9672 3.55939 9.00775 13.936 9.00775 26.6395C9.00775 39.343 18.9673 49.7197 31.5039 50.389C31.0773 50.4118 30.6479 50.424 30.2156 50.424C17.0798 50.424 6.43121 39.7754 6.43121 26.6396C6.43121 13.5038 17.0798 2.8551 30.2156 2.8551Z" fill="#EAB14D"/>
<path id="Vector_17" d="M30.2159 45.7947C19.6368 45.7947 11.0607 37.2186 11.0607 26.6395C11.0607 16.0604 19.6368 7.48434 30.2159 7.48434C40.795 7.48434 49.3711 16.0604 49.3711 26.6395C49.3711 37.2186 40.795 45.7947 30.2159 45.7947Z" fill="#E7A52E"/>
<path id="Vector_18" d="M30.2163 7.48434C30.6954 7.48434 31.1704 7.50245 31.6406 7.5371C21.7268 8.26584 13.9097 16.5396 13.9097 26.6395C13.9097 36.7394 21.7267 45.0132 31.6406 45.7419C31.1703 45.7765 30.6954 45.7947 30.2163 45.7947C19.6372 45.7947 11.0612 37.2186 11.0612 26.6395C11.0612 16.0604 19.6372 7.48434 30.2163 7.48434Z" fill="#E28424"/>
<path id="Vector_19" d="M45.1406 38.6451C44.0437 40.0071 42.7649 41.2162 41.34 42.2346L36.3107 8.47501C37.987 9.03725 39.5595 9.82519 40.9928 10.8024L45.1406 38.6451Z" fill="#EAB14D"/>
<path id="Vector_20" d="M29.6315 16.0869L26.0155 21.6422C25.9218 21.7863 25.778 21.8907 25.612 21.9354L19.2112 23.6577C18.724 23.7888 18.5326 24.3777 18.8498 24.7701L23.0158 29.9258C23.1238 30.0595 23.1787 30.2284 23.1699 30.4001L22.83 37.0198C22.8041 37.5236 23.305 37.8875 23.7762 37.7073L29.9669 35.3385C30.1275 35.2771 30.3051 35.2771 30.4657 35.3385L36.6563 37.7073C37.1275 37.8876 37.6285 37.5236 37.6026 37.0198L37.2627 30.4001C37.2539 30.2284 37.3088 30.0595 37.4168 29.9258L41.5828 24.7701C41.8999 24.3777 41.7086 23.7888 41.2214 23.6577L34.8206 21.9354C34.6546 21.8907 34.5109 21.7862 34.4171 21.6422L30.8011 16.0869C30.5259 15.6641 29.9068 15.6641 29.6315 16.0869Z" fill="#C85929"/>
<path id="Vector_21" d="M19.2102 23.6578L25.611 21.9355C25.777 21.8907 25.9207 21.7863 26.0146 21.6423L26.319 21.1746C26.3496 24.7042 26.8589 30.3873 29.3594 35.5707L23.7753 37.7075C23.3041 37.8879 22.8031 37.5239 22.829 37.02L23.1689 30.4003C23.1778 30.2286 23.1228 30.0597 23.0148 29.926L18.8488 24.7703C18.5318 24.3777 18.7231 23.7889 19.2102 23.6578Z" fill="#B94029"/>
</g>
</g>
<defs>
<clipPath id="clip0_2_38">
<rect width="53.2791" height="53.2791" fill="white" transform="matrix(-1 0 0 1 54 0)"/>
</clipPath>
</defs>
</svg>
