<svg width="222" height="102" viewBox="0 0 222 102" fill="none" xmlns="http://www.w3.org/2000/svg">
<g filter="url(#filter0_d_2_184)">
<rect x="16" width="190" height="70" rx="20" fill="#F6FAFD"/>
<path d="M49.2065 23.634C49.9402 22.1475 52.0598 22.1475 52.7935 23.634L54.9431 27.9895C55.2344 28.5798 55.7975 28.9889 56.4489 29.0836L61.2555 29.782C62.896 30.0204 63.551 32.0363 62.3639 33.1934L58.8859 36.5837C58.4145 37.0432 58.1994 37.7052 58.3107 38.354L59.1317 43.1411C59.412 44.7749 57.6971 46.0209 56.2298 45.2495L51.9307 42.9893C51.348 42.683 50.652 42.683 50.0693 42.9893L45.7702 45.2495C44.3029 46.0209 42.588 44.7749 42.8683 43.1411L43.6893 38.354C43.8006 37.7052 43.5855 37.0432 43.1141 36.5837L39.6361 33.1934C38.449 32.0363 39.104 30.0204 40.7445 29.782L45.5511 29.0836C46.2025 28.9889 46.7656 28.5798 47.057 27.9895L49.2065 23.634Z" fill="#FBA457"/>
<path d="M79.2065 23.634C79.9402 22.1475 82.0598 22.1475 82.7935 23.634L84.9431 27.9895C85.2344 28.5798 85.7975 28.9889 86.4489 29.0836L91.2555 29.782C92.896 30.0204 93.551 32.0363 92.3639 33.1934L88.8859 36.5837C88.4145 37.0432 88.1994 37.7052 88.3107 38.354L89.1317 43.1411C89.412 44.7749 87.6971 46.0209 86.2298 45.2495L81.9307 42.9893C81.348 42.683 80.652 42.683 80.0693 42.9893L75.7702 45.2495C74.3029 46.0209 72.588 44.7749 72.8683 43.1411L73.6893 38.354C73.8006 37.7052 73.5855 37.0432 73.1141 36.5837L69.6361 33.1934C68.449 32.0363 69.104 30.0204 70.7445 29.782L75.5511 29.0836C76.2025 28.9889 76.7656 28.5798 77.057 27.9895L79.2065 23.634Z" fill="#FBA457"/>
<path d="M109.207 23.634C109.94 22.1475 112.06 22.1475 112.793 23.634L114.943 27.9895C115.234 28.5798 115.798 28.9889 116.449 29.0836L121.256 29.782C122.896 30.0204 123.551 32.0363 122.364 33.1934L118.886 36.5837C118.414 37.0432 118.199 37.7052 118.311 38.354L119.132 43.1411C119.412 44.7749 117.697 46.0209 116.23 45.2495L111.931 42.9893C111.348 42.683 110.652 42.683 110.069 42.9893L105.77 45.2495C104.303 46.0209 102.588 44.7749 102.868 43.1411L103.689 38.354C103.801 37.7052 103.586 37.0432 103.114 36.5837L99.6361 33.1934C98.449 32.0363 99.104 30.0204 100.744 29.782L105.551 29.0836C106.202 28.9889 106.766 28.5798 107.057 27.9895L109.207 23.634Z" fill="#FBA457"/>
<path d="M139.207 23.634C139.94 22.1475 142.06 22.1475 142.793 23.634L144.943 27.9895C145.234 28.5798 145.798 28.9889 146.449 29.0836L151.256 29.782C152.896 30.0204 153.551 32.0363 152.364 33.1934L148.886 36.5837C148.414 37.0432 148.199 37.7052 148.311 38.354L149.132 43.1411C149.412 44.7749 147.697 46.0209 146.23 45.2495L141.931 42.9893C141.348 42.683 140.652 42.683 140.069 42.9893L135.77 45.2495C134.303 46.0209 132.588 44.7749 132.868 43.1411L133.689 38.354C133.801 37.7052 133.586 37.0432 133.114 36.5837L129.636 33.1934C128.449 32.0363 129.104 30.0204 130.744 29.782L135.551 29.0836C136.202 28.9889 136.766 28.5798 137.057 27.9895L139.207 23.634Z" fill="#FBA457"/>
<path d="M169.207 23.634C169.94 22.1475 172.06 22.1475 172.793 23.634L174.943 27.9895C175.234 28.5798 175.798 28.9889 176.449 29.0836L181.256 29.782C182.896 30.0204 183.551 32.0363 182.364 33.1934L178.886 36.5837C178.414 37.0432 178.199 37.7052 178.311 38.354L179.132 43.1411C179.412 44.7749 177.697 46.0209 176.23 45.2495L171.931 42.9893C171.348 42.683 170.652 42.683 170.069 42.9893L165.77 45.2495C164.303 46.0209 162.588 44.7749 162.868 43.1411L163.689 38.354C163.801 37.7052 163.586 37.0432 163.114 36.5837L159.636 33.1934C158.449 32.0363 159.104 30.0204 160.744 29.782L165.551 29.0836C166.202 28.9889 166.766 28.5798 167.057 27.9895L169.207 23.634Z" fill="#FBA457"/>
</g>
<defs>
<filter id="filter0_d_2_184" x="0" y="0" width="222" height="102" filterUnits="userSpaceOnUse" color-interpolation-filters="sRGB">
<feFlood flood-opacity="0" result="BackgroundImageFix"/>
<feColorMatrix in="SourceAlpha" type="matrix" values="0 0 0 0 0 0 0 0 0 0 0 0 0 0 0 0 0 0 127 0" result="hardAlpha"/>
<feOffset dy="16"/>
<feGaussianBlur stdDeviation="8"/>
<feColorMatrix type="matrix" values="0 0 0 0 0 0 0 0 0 0 0 0 0 0 0 0 0 0 0.04 0"/>
<feBlend mode="normal" in2="BackgroundImageFix" result="effect1_dropShadow_2_184"/>
<feBlend mode="normal" in="SourceGraphic" in2="effect1_dropShadow_2_184" result="shape"/>
</filter>
</defs>
</svg>
